static_grf.mot
version=1
nRows=25
nColumns 19
inDegrees=yes
endheader
time	1_ground_force_vx	1_ground_force_vy	1_ground_force_vz	1_ground_force_px	1_ground_force_py	1_ground_force_pz	1_ground_torque_x	1_ground_torque_y	1_ground_torque_z	2_ground_force_vx	2_ground_force_vy	2_ground_force_vz	2_ground_force_px	2_ground_force_py	2_ground_force_pz	2_ground_torque_x	2_ground_torque_y	2_ground_torque_z
            0.192500	            3.292501	          264.719727	          -19.646439	           -0.338049	            0.006205	           -0.405611	            0.001091	            0.087697	           -0.006509	           -3.450116	          296.573461	           23.725812	           -0.317058	            0.005348	           -0.700197	            0.006665	           -0.572886	           -0.045831
            0.193000	            3.384381	          264.899647	          -19.554182	           -0.338606	            0.006205	           -0.405563	            0.000965	            0.075546	           -0.005577	           -3.490881	          294.915127	           23.954559	           -0.317904	            0.005343	           -0.699573	            0.007266	           -0.613840	           -0.049859
            0.193500	            3.338817	          263.998083	          -19.512077	           -0.338334	            0.006206	           -0.405859	            0.000866	            0.068445	           -0.005059	           -3.636165	          296.204335	           23.771506	           -0.317540	            0.005345	           -0.699902	            0.007248	           -0.590403	           -0.047382
            0.194000	            3.201090	          265.079650	          -19.507098	           -0.338002	            0.006205	           -0.405669	            0.000708	            0.058667	           -0.004317	           -3.733147	          297.124427	           23.868687	           -0.317028	            0.005350	           -0.700759	            0.007124	           -0.567041	           -0.045552
            0.194500	            3.292875	          264.538902	          -19.509644	           -0.338340	            0.006206	           -0.405905	            0.000884	            0.071030	           -0.005238	           -3.495595	          296.204675	           23.818374	           -0.317417	            0.005346	           -0.699904	            0.006757	           -0.572601	           -0.046044
            0.195000	            3.109356	          264.719298	          -19.554272	           -0.338305	            0.006207	           -0.405952	            0.000559	            0.047552	           -0.003513	           -4.104582	          296.201974	           23.959418	           -0.317295	            0.005347	           -0.700281	            0.007604	           -0.548767	           -0.044389
            0.195500	            3.017410	          264.899970	          -19.644983	           -0.338179	            0.006207	           -0.406077	            0.000468	            0.041086	           -0.003047	           -3.962765	          295.834702	           23.817259	           -0.317258	            0.005346	           -0.699796	            0.008171	           -0.609991	           -0.049110
            0.196000	            3.200701	          264.719906	          -19.692067	           -0.338219	            0.006205	           -0.405620	            0.000547	            0.045237	           -0.003365	           -4.008265	          295.466084	           23.862893	           -0.316934	            0.005346	           -0.699632	            0.007368	           -0.543147	           -0.043867
            0.196500	            3.017751	          264.899380	          -19.507415	           -0.338034	            0.006205	           -0.405630	            0.000570	            0.050029	           -0.003684	           -4.009635	          295.834701	           23.770351	           -0.317397	            0.005346	           -0.700115	            0.007672	           -0.566035	           -0.045481
            0.197000	            3.018126	          264.718494	          -19.370621	           -0.338110	            0.006207	           -0.406136	            0.000442	            0.038744	           -0.002835	           -3.775345	          295.835212	           23.864108	           -0.317267	            0.005345	           -0.699481	            0.007303	           -0.572266	           -0.046163
            0.197500	            3.200311	          264.360161	          -19.877037	           -0.338323	            0.006207	           -0.406062	            0.002167	            0.179041	           -0.013462	           -3.919156	          296.754967	           24.008237	           -0.316933	            0.005348	           -0.699959	            0.007883	           -0.596881	           -0.048289
            0.198000	            3.155184	          264.178737	          -19.602560	           -0.337945	            0.006207	           -0.406128	            0.000515	            0.043137	           -0.003201	           -3.918594	          296.571602	           23.772939	           -0.317196	            0.005346	           -0.699815	            0.006948	           -0.525881	           -0.042154
            0.198500	            3.246577	          264.539679	          -19.692954	           -0.337911	            0.006207	           -0.406076	            0.001261	            0.102732	           -0.007648	           -3.962642	          295.833698	           24.098828	           -0.317075	            0.005347	           -0.699861	            0.007678	           -0.573182	           -0.046692
            0.199000	            3.475807	          265.080293	          -19.645348	           -0.337941	            0.006206	           -0.405759	            0.001490	            0.113634	           -0.008422	           -4.009533	          295.833864	           24.004992	           -0.316699	            0.005348	           -0.699862	            0.007459	           -0.550344	           -0.044657
            0.199500	            3.154286	          265.982377	          -19.824110	           -0.337718	            0.006203	           -0.405208	            0.000924	            0.077909	           -0.005807	           -3.864454	          294.546330	           23.718764	           -0.317563	            0.005344	           -0.699721	            0.008151	           -0.621251	           -0.050027
            0.200000	            3.200602	          265.260733	          -19.689748	           -0.337779	            0.006206	           -0.405807	            0.001112	            0.092161	           -0.006841	           -4.010841	          296.201978	           24.053234	           -0.317026	            0.005348	           -0.700153	            0.008131	           -0.600484	           -0.048763
            0.200500	            3.200293	          265.081027	          -19.828089	           -0.337785	            0.006206	           -0.405720	            0.000838	            0.069390	           -0.005190	           -4.010944	          296.202815	           23.818593	           -0.316717	            0.005349	           -0.700217	            0.007769	           -0.573747	           -0.046137
            0.201000	            3.567753	          264.899683	          -19.554637	           -0.337847	            0.006207	           -0.405987	            0.001946	            0.144511	           -0.010668	           -3.915915	          295.834872	           23.817239	           -0.317198	            0.005347	           -0.700051	            0.007899	           -0.596717	           -0.048041
            0.201500	            3.430207	          265.620522	          -19.505348	           -0.337895	            0.006205	           -0.405644	            0.000697	            0.053984	           -0.003964	           -4.011588	          296.386788	           23.866178	           -0.316916	            0.005348	           -0.700047	            0.007874	           -0.581755	           -0.046845
            0.202000	            3.246445	          265.260742	          -19.689862	           -0.337888	            0.006205	           -0.405519	            0.002134	            0.174390	           -0.012945	           -3.962703	          295.834200	           23.958044	           -0.316625	            0.005349	           -0.699988	            0.007891	           -0.589129	           -0.047710
            0.202500	            3.246233	          265.801705	          -19.733399	           -0.337430	            0.006205	           -0.405510	            0.000603	            0.049367	           -0.003665	           -4.008265	          295.466084	           23.862893	           -0.316719	            0.005348	           -0.699756	            0.008589	           -0.633113	           -0.051132
            0.203000	            3.200977	          265.079847	          -19.552954	           -0.337871	            0.006207	           -0.406103	            0.000304	            0.025179	           -0.001857	           -3.683015	          296.204166	           23.771526	           -0.316583	            0.005349	           -0.700029	            0.007467	           -0.600541	           -0.048196
            0.203500	            3.384250	          265.620710	          -19.551090	           -0.337399	            0.006205	           -0.405581	            0.000999	            0.078371	           -0.005769	           -4.105247	          296.386115	           23.960075	           -0.316474	            0.005350	           -0.700173	            0.007860	           -0.567452	           -0.045873
            0.204000	            2.971321	          265.621220	          -19.687633	           -0.337541	            0.006205	           -0.405463	            0.000680	            0.060782	           -0.004505	           -4.152741	          296.569919	           24.007680	           -0.316364	            0.005351	           -0.700320	            0.007620	           -0.544184	           -0.044052
            0.204500	            3.246577	          264.539679	          -19.692954	           -0.338146	            0.006209	           -0.406433	            0.000427	            0.034820	           -0.002592	           -4.243782	          295.833018	           24.005091	           -0.316566	            0.005349	           -0.700050	            0.008223	           -0.573254	           -0.046516
